<svg width="20" height="19" viewBox="0 0 20 19" fill="none" xmlns="http://www.w3.org/2000/svg">
<path d="M10.884 0.532004C10.538 -0.121996 9.46203 -0.121996 9.11603 0.532004L0.116027 17.532C0.035316 17.6844 -0.00460762 17.8551 0.000133959 18.0275C0.00487554 18.1999 0.0541212 18.3681 0.143088 18.5159C0.232055 18.6636 0.357718 18.7858 0.507872 18.8707C0.658026 18.9555 0.827567 19.0001 1.00003 19H19C19.1725 19.0004 19.3421 18.956 19.4923 18.8713C19.6425 18.7866 19.7682 18.6644 19.8572 18.5167C19.9461 18.3689 19.9952 18.2006 19.9998 18.0282C20.0043 17.8559 19.9641 17.6852 19.883 17.533L10.884 0.532004ZM11 16H9.00003V14H11V16ZM9.00003 12V7H11L11.001 12H9.00003Z" fill="black"/>
</svg>
