<svg width="133" height="20" viewBox="0 0 133 20" fill="none" xmlns="http://www.w3.org/2000/svg">
<path d="M1.008 19.5V19.164C1.8 18.9 1.968 18.18 1.968 16.452V7.188C1.968 4.26 1.44 3.42 0.336 3.036V2.7H3.936L9.864 12.54L15.504 2.7H18.912V3.036C17.808 3.42 17.28 4.26 17.28 7.188V16.452C17.28 18.18 17.448 18.9 18.24 19.164V19.5H13.776V19.164C14.568 18.9 14.736 18.18 14.736 16.452V4.836L8.976 14.94H8.424L2.4 5.052V15.012C2.4 17.94 2.976 18.78 4.224 19.164V19.5H1.008ZM21.6711 19.5V19.164C22.4631 18.9 22.6311 18.18 22.6311 16.452V10.932C22.6311 9.516 22.2711 9.276 21.6711 9.012V8.676L24.8391 7.284L25.0791 7.476V16.452C25.0791 18.18 25.2471 18.9 26.0391 19.164V19.5H21.6711ZM22.0791 4.836C22.0791 3.9 22.7991 3.18 23.7111 3.18C24.6711 3.18 25.3431 3.9 25.3431 4.836C25.3431 5.748 24.6231 6.468 23.7111 6.468C22.7991 6.468 22.0791 5.748 22.0791 4.836ZM28.3967 19.5V19.164C29.1887 18.9 29.3567 18.18 29.3567 16.452V10.932C29.3567 9.516 28.9967 9.276 28.3967 9.012V8.676L31.5647 7.284L31.8047 7.476V9.492C33.1247 8.412 34.8527 7.332 36.7247 7.332C38.9327 7.332 40.4207 8.484 40.4207 11.292V16.452C40.4207 18.18 40.5887 18.9 41.3807 19.164V19.5H37.0127V19.164C37.8047 18.9 37.9727 18.18 37.9727 16.452V11.724C37.9727 9.564 37.0367 8.292 35.2607 8.292C34.1327 8.292 33.1007 8.844 31.8047 9.9V16.452C31.8047 18.18 31.9727 18.9 32.7647 19.164V19.5H28.3967ZM48.6735 19.788C45.6255 19.74 43.5615 16.932 43.5615 13.956C43.5615 10.284 46.0815 7.356 50.2575 7.356C51.2655 7.356 52.1055 7.596 52.8255 7.956V3.732C52.8255 2.316 52.4655 2.076 51.8655 1.812V1.476L55.0335 0.0839996L55.2735 0.275999V16.452C55.2735 18.18 55.4415 18.9 56.2335 19.164V19.5H53.7855C53.1615 19.5 52.8255 19.164 52.8255 18.54V17.532C51.9135 18.588 50.4735 19.836 48.6735 19.788ZM45.9135 12.012C45.9135 14.292 46.7055 18.348 50.1615 18.348C51.2175 18.348 52.1295 17.772 52.8255 17.028V11.724C52.8255 9.948 51.2655 7.86 49.2495 7.86C46.6095 7.86 45.9135 10.116 45.9135 12.012ZM58.7571 19.5V19.164C59.5491 18.9 59.7171 18.18 59.7171 16.452V5.748C59.7171 4.02 59.5491 3.3 58.7571 3.036V2.7H64.6851C68.6211 2.7 70.0611 3.924 70.0611 5.868C70.0611 7.5 69.0291 8.988 66.0051 9.516C69.9651 9.636 71.9811 11.46 72.0051 13.86C72.0531 16.668 69.8691 19.5 63.9651 19.5H58.7571ZM62.2611 17.028C62.2611 18.756 62.4771 19.116 63.5091 19.116H64.1811C67.6371 19.116 69.1491 17.292 69.1491 14.748C69.1491 11.868 67.5411 9.828 63.9651 9.828H62.2611V17.028ZM62.2611 9.444H64.3971C66.1491 9.444 67.2051 8.1 67.2051 6.42C67.2051 4.308 65.6931 3.084 63.2451 3.084H62.2611V9.444ZM74.4731 19.5V19.164C75.2651 18.9 75.4331 18.18 75.4331 16.452V3.732C75.4331 2.316 75.0731 2.076 74.4731 1.812V1.476L77.6411 0.0839996L77.8811 0.275999V16.452C77.8811 18.18 78.0491 18.9 78.8411 19.164V19.5H74.4731ZM87.7714 19.74C84.6514 19.74 81.3634 17.892 81.3634 13.812C81.3634 9.924 84.4834 7.332 87.7714 7.332C90.7474 7.332 94.1554 9.084 94.1554 13.308C94.1554 17.412 90.6034 19.74 87.7714 19.74ZM83.7634 12.012C83.7634 14.844 85.4434 19.212 88.6114 19.212C90.9634 19.212 91.7314 17.172 91.7314 15.132C91.7314 12.084 89.6434 7.5 86.5474 7.812C84.4594 8.028 83.7634 9.948 83.7634 12.012ZM103.028 19.74C99.9083 19.74 96.6203 17.892 96.6203 13.812C96.6203 9.924 99.7403 7.332 103.028 7.332C106.004 7.332 109.412 9.084 109.412 13.308C109.412 17.412 105.86 19.74 103.028 19.74ZM99.0203 12.012C99.0203 14.844 100.7 19.212 103.868 19.212C106.22 19.212 106.988 17.172 106.988 15.132C106.988 12.084 104.9 7.5 101.804 7.812C99.7163 8.028 99.0203 9.948 99.0203 12.012ZM112.04 19.5V19.164C112.832 18.9 113 18.18 113 16.452V10.932C113 9.516 112.64 9.276 112.04 9.012V8.676L115.208 7.284L115.448 7.476V9.492C116.768 8.412 118.496 7.332 120.368 7.332C122.048 7.332 123.152 7.98 123.608 9.516C124.928 8.436 126.68 7.332 128.576 7.332C130.784 7.332 132.032 8.484 132.032 11.292V16.452C132.032 18.18 132.2 18.9 132.992 19.164V19.5H128.624V19.164C129.416 18.9 129.584 18.18 129.584 16.452V11.724C129.584 9.564 128.888 8.292 127.112 8.292C125.984 8.292 124.952 8.844 123.68 9.852C123.776 10.284 123.824 10.764 123.824 11.292V16.452C123.824 18.18 123.992 18.9 124.784 19.164V19.5H120.416V19.164C121.208 18.9 121.376 18.18 121.376 16.452V11.724C121.376 9.564 120.68 8.292 118.904 8.292C117.776 8.292 116.744 8.844 115.448 9.9V16.452C115.448 18.18 115.616 18.9 116.408 19.164V19.5H112.04Z" fill="#0C0B09"/>
</svg>
