<svg width="326" height="317" viewBox="0 0 326 317" fill="none" xmlns="http://www.w3.org/2000/svg">
<g clip-path="url(#clip0_1328_58515)">
<path d="M206.958 71.2923H119.115C117.114 71.2947 115.194 72.0879 113.779 73.498C112.364 74.9081 111.567 76.8198 111.565 78.8139V273.299L110.558 273.605L89.0088 280.179C87.9875 280.489 86.8844 280.383 85.9417 279.884C84.9989 279.385 84.2935 278.533 83.9803 277.516L19.8811 68.9405C19.5692 67.9231 19.6755 66.824 20.1767 65.8846C20.6779 64.9453 21.533 64.2426 22.554 63.9311L55.7614 53.8019L152.031 24.4473L185.238 14.3182C185.743 14.1632 186.274 14.1091 186.801 14.1588C187.327 14.2086 187.838 14.3613 188.305 14.6081C188.773 14.855 189.186 15.1911 189.523 15.5974C189.859 16.0037 190.112 16.4721 190.267 16.9758L206.651 70.2894L206.958 71.2923Z" fill="#F2F2F2"/>
<path d="M226.127 70.2895L206.379 6.03442C206.051 4.96382 205.514 3.96819 204.799 3.10444C204.084 2.24069 203.205 1.52575 202.213 1.00046C201.22 0.475179 200.134 0.149844 199.015 0.0430624C197.896 -0.0637196 196.767 0.0501437 195.693 0.378134L149.005 14.6141L52.7413 43.9737L6.05382 58.2147C3.88497 58.8782 2.06896 60.3717 1.0044 62.3676C-0.060155 64.3635 -0.286281 66.6986 0.375665 68.8604L67.8674 288.458C68.4052 290.203 69.4902 291.73 70.9633 292.816C72.4363 293.902 74.2199 294.488 76.0523 294.49C76.9004 294.491 77.7437 294.364 78.5539 294.114L110.558 284.356L111.565 284.045V282.997L110.558 283.303L78.257 293.156C76.3426 293.738 74.2749 293.539 72.5074 292.604C70.74 291.668 69.4171 290.073 68.8289 288.167L1.34234 68.5645C1.05093 67.6203 0.949372 66.628 1.04346 65.6446C1.13756 64.6612 1.42545 63.7059 1.89067 62.8335C2.3559 61.9611 2.98931 61.1886 3.75463 60.5604C4.51996 59.9322 5.40215 59.4606 6.35071 59.1725L53.0382 44.9315L149.303 15.5769L195.99 1.3359C196.71 1.11717 197.458 1.00565 198.21 1.00495C199.824 1.00856 201.395 1.52703 202.692 2.48442C203.989 3.44181 204.945 4.78781 205.418 6.32527L225.075 70.2895L225.387 71.2924H226.434L226.127 70.2895Z" fill="#3F3D56"/>
<path d="M61.7538 64.095C60.7836 64.0943 59.8392 63.7839 59.059 63.2094C58.2789 62.6348 57.7042 61.8263 57.4191 60.9025L50.9355 39.8058C50.7613 39.2391 50.7008 38.6438 50.7576 38.0538C50.8144 37.4639 50.9872 36.8908 51.2664 36.3674C51.5455 35.844 51.9254 35.3805 52.3843 35.0034C52.8433 34.6263 53.3723 34.3429 53.9412 34.1695L142.503 7.15978C143.652 6.81054 144.893 6.92965 145.954 7.49097C147.015 8.05228 147.809 9.00994 148.162 10.1538L154.645 31.2507C154.996 32.3951 154.876 33.6313 154.313 34.688C153.749 35.7447 152.788 36.5356 151.64 36.8873L63.0773 63.8969C62.6485 64.0281 62.2024 64.0948 61.7538 64.095Z" fill="#6C63FF"/>
<path d="M95.7174 22.5423C101.277 22.5423 105.785 18.0522 105.785 12.5134C105.785 6.97457 101.277 2.48448 95.7174 2.48448C90.1573 2.48448 85.65 6.97457 85.65 12.5134C85.65 18.0522 90.1573 22.5423 95.7174 22.5423Z" fill="#6C63FF"/>
<path d="M95.7174 18.864C99.2382 18.864 102.092 16.0207 102.092 12.5134C102.092 9.00603 99.2382 6.16277 95.7174 6.16277C92.1966 6.16277 89.3424 9.00603 89.3424 12.5134C89.3424 16.0207 92.1966 18.864 95.7174 18.864Z" fill="white"/>
<path d="M303.349 291.928H133.21C132.075 291.926 130.988 291.477 130.186 290.678C129.384 289.879 128.932 288.796 128.931 287.666V84.5805C128.932 83.4505 129.384 82.3671 130.186 81.568C130.988 80.769 132.075 80.3195 133.21 80.3183H303.349C304.483 80.3196 305.57 80.769 306.373 81.5681C307.175 82.3671 307.626 83.4505 307.627 84.5805V287.666C307.626 288.796 307.175 289.879 306.372 290.678C305.57 291.477 304.483 291.926 303.349 291.928Z" fill="#E6E6E6"/>
<path d="M225.075 70.2894H119.115C116.847 70.2926 114.672 71.1917 113.068 72.7897C111.464 74.3877 110.561 76.5541 110.558 78.8139V283.303L111.565 282.997V78.8139C111.567 76.8198 112.364 74.908 113.779 73.498C115.194 72.0879 117.114 71.2947 119.115 71.2923H225.387L225.075 70.2894ZM317.443 70.2894H119.115C116.847 70.2926 114.672 71.1917 113.068 72.7897C111.464 74.3877 110.561 76.5541 110.558 78.8139V308.475C110.561 310.735 111.464 312.902 113.068 314.5C114.672 316.098 116.847 316.997 119.115 317H317.443C319.711 316.997 321.886 316.098 323.49 314.5C325.094 312.902 325.997 310.735 326 308.475V78.8139C325.997 76.5541 325.094 74.3877 323.49 72.7897C321.886 71.1917 319.711 70.2926 317.443 70.2894ZM324.993 308.475C324.991 310.47 324.195 312.381 322.779 313.791C321.364 315.201 319.445 315.995 317.443 315.997H119.115C117.114 315.995 115.194 315.201 113.779 313.791C112.364 312.381 111.567 310.47 111.565 308.475V78.8139C111.567 76.8198 112.364 74.908 113.779 73.498C115.194 72.0879 117.114 71.2947 119.115 71.2923H317.443C319.445 71.2947 321.364 72.0879 322.779 73.498C324.195 74.908 324.991 76.8198 324.993 78.8139V308.475Z" fill="#3F3D56"/>
<path d="M264.589 92.3529H171.969C170.768 92.3516 169.617 91.8757 168.767 91.0296C167.918 90.1835 167.44 89.0364 167.439 87.8399V65.7764C167.44 64.5799 167.918 63.4327 168.767 62.5867C169.617 61.7406 170.768 61.2647 171.969 61.2634H264.589C265.79 61.2647 266.942 61.7406 267.791 62.5867C268.64 63.4327 269.118 64.5799 269.119 65.7764V87.8399C269.118 89.0364 268.64 90.1835 267.791 91.0296C266.942 91.8757 265.79 92.3516 264.589 92.3529Z" fill="#6C63FF"/>
<path d="M218.279 62.7677C223.839 62.7677 228.346 58.2776 228.346 52.7388C228.346 47.2 223.839 42.7099 218.279 42.7099C212.719 42.7099 208.212 47.2 208.212 52.7388C208.212 58.2776 212.719 62.7677 218.279 62.7677Z" fill="#6C63FF"/>
<path d="M218.279 58.8474C221.666 58.8474 224.411 56.1125 224.411 52.7388C224.411 49.3652 221.666 46.6303 218.279 46.6303C214.892 46.6303 212.147 49.3652 212.147 52.7388C212.147 56.1125 214.892 58.8474 218.279 58.8474Z" fill="white"/>
</g>
<defs>
<clipPath id="clip0_1328_58515">
<rect width="326" height="317" fill="white"/>
</clipPath>
</defs>
</svg>
