<svg width="18" height="18" viewBox="0 0 18 18" fill="none" xmlns="http://www.w3.org/2000/svg">
<path d="M14.625 0.5C14.7761 0.5 14.9237 0.521515 15.0693 0.564453L15.2148 0.614258C15.3951 0.686176 15.5487 0.793048 15.6807 0.9375L15.6865 0.944336L15.6934 0.950195L17.0684 2.35059L17.0771 2.35938L17.0869 2.36816C17.2291 2.49854 17.3296 2.64872 17.3936 2.82227C17.4482 2.97079 17.4814 3.11589 17.4941 3.25781L17.5 3.39844V3.40039C17.5 3.60842 17.4648 3.80268 17.3955 3.98633C17.3477 4.11297 17.2771 4.23551 17.1797 4.35352L17.0723 4.4707L4.04297 17.5H0.5V13.957L13.5381 0.943359C13.6568 0.834533 13.7829 0.745722 13.917 0.675781L14.0537 0.612305C14.2342 0.53773 14.4235 0.5 14.625 0.5ZM1.5 14.3682V16.5H3.63184L13.9072 6.22461L11.7754 4.09277L1.5 14.3682Z" stroke="#F1EFE9"/>
</svg>
