<svg width="22" height="28" viewBox="0 0 22 28" fill="none" xmlns="http://www.w3.org/2000/svg">
<path d="M21.6668 0.666687H0.333496V3.33335L8.08016 9.14669C5.72915 9.92193 3.78213 11.5989 2.66705 13.8091C1.55196 16.0193 1.36005 18.5817 2.1335 20.9334C2.51615 22.0983 3.12472 23.1763 3.9244 24.1059C4.72408 25.0354 5.69918 25.7981 6.79391 26.3504C7.88863 26.9027 9.08152 27.2338 10.3043 27.3247C11.5271 27.4156 12.7558 27.2645 13.9202 26.88C15.7875 26.2663 17.4133 25.0787 18.566 23.4865C19.7186 21.8943 20.3392 19.9789 20.3392 18.0134C20.3392 16.0478 19.7186 14.1324 18.566 12.5402C17.4133 10.9481 15.7875 9.76044 13.9202 9.14669L21.6668 3.33335V0.666687ZM14.9202 24L11.0002 21.7067L7.08016 24L8.12016 19.56L4.66683 16.5734L9.2135 16.1867L11.0002 12L12.7868 16.1867L17.3335 16.5734L13.8802 19.56L14.9202 24Z" fill="#4B463E"/>
</svg>
