<svg width="30" height="30" viewBox="0 0 30 30" fill="none" xmlns="http://www.w3.org/2000/svg">
<path d="M14.9998 0.466003C6.97282 0.466003 0.46582 6.973 0.46582 15C0.46582 23.027 6.97282 29.534 14.9998 29.534C23.0268 29.534 29.5338 23.027 29.5338 15C29.5338 6.973 23.0268 0.466003 14.9998 0.466003ZM16.2548 22.88V24.927H14.2968V22.903C11.0838 22.463 9.67682 19.823 9.67682 19.823L11.6768 18.15C11.6768 18.15 12.9538 20.373 15.2638 20.373C16.5398 20.373 17.5078 19.69 17.5078 18.523C17.5078 15.795 10.1578 16.126 10.1578 11.065C10.1578 8.865 11.8978 7.28 14.2958 6.905V4.86H16.2538V6.905C17.9258 7.125 19.9058 8.005 19.9058 9.898V11.35H17.3098V10.646C17.3098 9.92 16.3848 9.436 15.3498 9.436C14.0298 9.436 13.0628 10.096 13.0628 11.02C13.0628 13.814 20.4128 13.132 20.4128 18.435C20.4128 20.615 18.7848 22.505 16.2548 22.88Z" fill="#4B463E"/>
</svg>
