<svg width="20" height="22" viewBox="0 0 20 22" fill="none" xmlns="http://www.w3.org/2000/svg">
<path d="M16.6638 20.6575C15.3716 21.7656 13.9606 21.5907 12.6024 21.0657C11.1651 20.5291 9.84643 20.5058 8.32999 21.0657C6.43114 21.789 5.42897 21.579 4.29493 20.6575C-2.14006 14.7899 -1.19063 5.85432 6.11466 5.5277C7.89483 5.60935 9.13436 6.39092 10.1761 6.46091C11.7321 6.18095 13.2222 5.37605 14.8837 5.48104C16.8748 5.62102 18.3781 6.32093 19.3671 7.58077C15.2529 9.76216 16.2287 14.5566 20 15.8981C19.2484 17.6478 18.2726 19.386 16.6506 20.6691L16.6638 20.6575ZM10.0442 5.45771C9.84643 2.85637 12.2332 0.709973 14.976 0.5C15.3584 3.50962 11.8903 5.74934 10.0442 5.45771Z" fill="#F1EFE9"/>
</svg>
