<svg width="20" height="20" viewBox="0 0 20 20" fill="none" xmlns="http://www.w3.org/2000/svg">
<path d="M1.064 5.51C1.89638 3.85353 3.17282 2.46106 4.7508 1.48806C6.32878 0.515073 8.14616 -0.000126487 10 2.32934e-08C12.695 2.32934e-08 14.959 0.991 16.69 2.605L13.823 5.473C12.786 4.482 11.468 3.977 10 3.977C7.395 3.977 5.19 5.737 4.405 8.1C4.205 8.7 4.091 9.34 4.091 10C4.091 10.66 4.205 11.3 4.405 11.9C5.191 14.264 7.395 16.023 10 16.023C11.345 16.023 12.49 15.668 13.386 15.068C13.9054 14.726 14.3501 14.2822 14.6932 13.7635C15.0363 13.2448 15.2706 12.6619 15.382 12.05H10V8.182H19.418C19.536 8.836 19.6 9.518 19.6 10.227C19.6 13.273 18.51 15.837 16.618 17.577C14.964 19.105 12.7 20 10 20C8.68663 20.0005 7.38604 19.7422 6.17254 19.2399C4.95905 18.7375 3.85645 18.0009 2.92776 17.0722C1.99907 16.1436 1.2625 15.0409 0.760135 13.8275C0.257774 12.614 -0.000524861 11.3134 8.00714e-07 10C8.00714e-07 8.386 0.386001 6.86 1.064 5.51Z" fill="black"/>
</svg>
