<svg width="20" height="21" viewBox="0 0 20 21" fill="none" xmlns="http://www.w3.org/2000/svg">
<path d="M1.064 6.01C1.89638 4.35353 3.17282 2.96106 4.7508 1.98806C6.32878 1.01507 8.14616 0.499874 10 0.5C12.695 0.5 14.959 1.491 16.69 3.105L13.823 5.973C12.786 4.982 11.468 4.477 10 4.477C7.395 4.477 5.19 6.237 4.405 8.6C4.205 9.2 4.091 9.84 4.091 10.5C4.091 11.16 4.205 11.8 4.405 12.4C5.191 14.764 7.395 16.523 10 16.523C11.345 16.523 12.49 16.168 13.386 15.568C13.9054 15.226 14.3501 14.7822 14.6932 14.2635C15.0363 13.7448 15.2706 13.1619 15.382 12.55H10V8.682H19.418C19.536 9.336 19.6 10.018 19.6 10.727C19.6 13.773 18.51 16.337 16.618 18.077C14.964 19.605 12.7 20.5 10 20.5C8.68663 20.5005 7.38604 20.2422 6.17254 19.7399C4.95905 19.2375 3.85645 18.5009 2.92776 17.5722C1.99907 16.6436 1.2625 15.5409 0.760135 14.3275C0.257774 13.114 -0.000524861 11.8134 8.00714e-07 10.5C8.00714e-07 8.886 0.386001 7.36 1.064 6.01Z" fill="#F1EFE9"/>
</svg>
