<svg width="20" height="21" viewBox="0 0 20 21" fill="none" xmlns="http://www.w3.org/2000/svg">
<path d="M17.0769 20.1575C15.7846 21.2656 14.3737 21.0907 13.0155 20.5657C11.5782 20.0291 10.2595 20.0058 8.74307 20.5657C6.84422 21.289 5.84205 21.079 4.70802 20.1575C-1.72697 14.2899 -0.777548 5.35432 6.52775 5.0277C8.30792 5.10935 9.54745 5.89092 10.5892 5.96091C12.1452 5.68095 13.6352 4.87605 15.2967 4.98104C17.2879 5.12102 18.7912 5.82093 19.7801 7.08077C15.666 9.26216 16.6418 14.0566 20.4131 15.3981C19.6615 17.1478 18.6857 18.886 17.0637 20.1691L17.0769 20.1575ZM10.4573 4.95771C10.2595 2.35637 12.6463 0.209973 15.389 0C15.7715 3.00962 12.3034 5.24934 10.4573 4.95771Z" fill="black"/>
</svg>
