<svg width="486" height="291" viewBox="0 0 486 291" fill="none" xmlns="http://www.w3.org/2000/svg">
<g clip-path="url(#clip0_1328_58534)">
<path d="M243.895 217.146C242.883 223.289 237.543 227.99 231.125 227.99C224.707 227.99 219.368 223.289 218.355 217.146H185.685V288.029H276.565V217.146H243.895Z" fill="#D8D8D8"/>
<path d="M196.253 287.765H187.27V289.352H196.253V287.765Z" fill="#D8D8D8"/>
<path d="M275.772 288.029H266.79V289.616H275.772V288.029Z" fill="#D8D8D8"/>
<path d="M413.895 218.997H48.3556C45.5619 218.997 43.2891 216.722 43.2891 213.925V5.07231C43.2891 2.27554 45.5619 0 48.3556 0H413.895C416.688 0 418.961 2.27554 418.961 5.07231V213.925C418.961 216.722 416.688 218.997 413.895 218.997Z" fill="#2F2E41"/>
<path d="M410.243 8.99271H52.5355V211.063H410.243V8.99271Z" fill="white"/>
<path d="M219.03 169.928L219.026 169.932C218.984 169.885 218.941 169.838 218.896 169.793C217.707 168.603 215.78 168.603 214.591 169.793C213.403 170.983 213.403 172.913 214.591 174.103C214.637 174.148 214.683 174.191 214.731 174.233L214.726 174.237L219.03 178.547L223.335 174.237C224.523 173.047 224.523 171.118 223.335 169.928C222.146 168.738 220.219 168.738 219.03 169.928Z" fill="#6C63FF"/>
<path d="M327.652 161.9H124.587C120.625 161.9 117.402 158.673 117.402 154.707V48.1059C117.402 44.1398 120.625 40.9128 124.587 40.9128H327.652C331.614 40.9128 334.836 44.1398 334.836 48.1059V154.707C334.836 158.673 331.614 161.9 327.652 161.9Z" fill="#D8D8D8"/>
<path d="M344.318 64.5983L351.611 58.9173C351.611 58.9173 359.933 61.5138 360.147 61.6211C360.362 61.7285 373.061 91.2117 373.061 91.2117C373.061 91.2117 340.53 107.879 342.909 106.253C345.288 104.633 344.796 82.6659 342.583 79.801C340.365 76.9313 342.256 69.7374 342.256 69.7374L344.309 64.5982L344.318 64.5983Z" fill="#2F2E43"/>
<path d="M364.476 77.883H354.59V93.5885L365.49 90.0013L364.476 77.883Z" fill="#EC9C9F"/>
<path d="M332.17 179.168C332.428 177.733 332.326 176.255 331.873 174.849L335.319 160.017L327.968 158.475L325.267 173.687C324.39 174.854 323.819 176.22 323.605 177.66C323.01 181.262 324.453 184.517 326.817 184.932C329.182 185.347 331.58 182.765 332.17 179.168Z" fill="#EC9C9F"/>
<path d="M361.39 265.841H351.182V280.341H361.39V265.841Z" fill="#EC9C9F"/>
<path d="M341.247 289.117C345.727 289.117 352.269 288.648 352.318 288.643C354.068 288.799 362.804 289.487 363.238 287.486C363.638 285.646 363.048 283.724 362.965 283.46C362.121 275.1 361.809 275.002 361.624 274.948C361.327 274.861 360.459 275.275 359.05 276.183L358.962 276.242L358.943 276.344C358.919 276.471 358.295 279.541 355.336 279.072C353.308 278.75 352.65 278.301 352.44 278.082C352.611 278.004 352.825 277.867 352.976 277.633C353.196 277.291 353.235 276.852 353.088 276.325C352.708 274.939 351.567 272.884 351.519 272.796L351.387 272.562L339.785 280.4L332.619 282.45C332.077 282.601 331.644 282.991 331.424 283.509C331.122 284.231 331.307 285.071 331.892 285.598C333.194 286.769 335.782 288.775 338.493 289.024C339.214 289.092 340.17 289.117 341.242 289.117H341.247Z" fill="#2F2E43"/>
<path d="M390.46 254.453L381.798 259.862L389.462 272.165L398.124 266.757L390.46 254.453Z" fill="#EC9C9F"/>
<path d="M378.95 287.135C380.378 287.135 381.948 286.93 383.274 286.261C386.618 284.578 394.754 278.658 394.803 278.619C396.368 277.828 404.143 273.782 403.456 271.854C402.822 270.083 401.306 268.76 401.096 268.584C395.963 261.932 395.651 262.015 395.461 262.069C395.159 262.152 394.647 262.962 393.93 264.48L393.886 264.572L393.925 264.67C393.974 264.792 395.066 267.73 392.307 268.897C390.415 269.697 389.621 269.668 389.328 269.59C389.435 269.429 389.543 269.204 389.548 268.921C389.557 268.516 389.357 268.121 388.953 267.75C387.895 266.774 385.843 265.636 385.755 265.588L385.521 265.461L379.817 278.257L374.821 283.792C374.44 284.207 374.279 284.768 374.367 285.324C374.494 286.095 375.098 286.71 375.869 286.847C376.653 286.984 377.755 287.13 378.954 287.13L378.95 287.135Z" fill="#2F2E43"/>
<path d="M368.907 144.585C368.907 144.585 372.217 144.585 377.404 154.971C382.591 165.361 375.99 207.07 375.99 207.07L394.471 254.948L381.504 264.036L357.836 212.751L363.672 269.555H349.081L337.732 171.203L340.326 144.585H368.907Z" fill="#2F2E43"/>
<path d="M371.13 87.4586H351.353L333.52 146.21H383.122L371.13 87.4586Z" fill="#6C63FF"/>
<path d="M354.477 87.4635L334.373 170.886H324.321C324.321 170.886 339.56 93.6324 340.857 90.3869C342.154 87.1365 354.473 87.4635 354.473 87.4635H354.477Z" fill="#6C63FF"/>
<path d="M355.94 82.2267C361.939 82.2267 366.801 77.3583 366.801 71.3529C366.801 65.3475 361.939 60.4791 355.94 60.4791C349.941 60.4791 345.079 65.3475 345.079 71.3529C345.079 77.3583 349.941 82.2267 355.94 82.2267Z" fill="#EC9C9F"/>
<path d="M342.412 69.3714L345.074 69.8253C347.56 59.869 353.186 63.1194 353.722 63.0072C354.258 62.8949 362.258 71.6603 361.61 80.5331C360.961 89.4059 372.417 93.5641 372.417 93.5641C372.417 93.5641 376.42 101.095 372.851 114.726C369.283 128.357 376.849 132.93 376.849 132.93C391.766 131.661 382.796 110.831 380.417 107.044C378.038 103.257 379.661 96.6583 379.661 96.6583C383.337 93.4128 379.013 86.2726 379.013 86.2726C379.013 86.2726 379.773 76.7507 377.502 74.9108C375.23 73.0708 375.123 68.5271 375.123 68.5271C371.121 51.1085 358.046 54.4614 358.046 54.4614C341.296 52.6215 342.412 69.3714 342.412 69.3714Z" fill="#2F2E43"/>
<path d="M391.59 177.426C391.317 175.991 390.698 174.644 389.777 173.492L387.734 158.402L380.315 159.578L383.186 174.761C382.786 176.167 382.737 177.641 383.045 179.066C383.766 182.638 386.267 185.171 388.626 184.717C390.986 184.264 392.317 180.998 391.59 177.426Z" fill="#EC9C9F"/>
<path d="M381.119 169.9H391.171C391.171 169.9 375.932 92.6466 374.635 89.401C373.339 86.1555 362.487 87.5318 362.487 87.5318L381.119 169.9Z" fill="#6C63FF"/>
<path d="M0 289.995C0 290.552 0.636986 291 1.43021 291H484.57C485.363 291 486 290.552 486 289.995C486 289.437 485.363 288.989 484.57 288.989H1.43021C0.636986 288.989 0 289.437 0 289.995Z" fill="#2F2E43"/>
</g>
<defs>
<clipPath id="clip0_1328_58534">
<rect width="486" height="291" fill="white"/>
</clipPath>
</defs>
</svg>
