<svg width="316" height="299" viewBox="0 0 316 299" fill="none" xmlns="http://www.w3.org/2000/svg">
<g clip-path="url(#clip0_1472_2709)">
<path d="M278.532 18.1634H0.436753C0.320036 18.1604 0.208975 18.106 0.127344 18.0117C0.0457137 17.9174 0 17.7907 0 17.6588C0 17.5269 0.0457137 17.4003 0.127344 17.306C0.208975 17.2117 0.320036 17.1572 0.436753 17.1543H278.532C278.649 17.1572 278.76 17.2117 278.842 17.306C278.923 17.4003 278.969 17.5269 278.969 17.6588C278.969 17.7907 278.923 17.9174 278.842 18.0117C278.76 18.106 278.649 18.1604 278.532 18.1634Z" fill="#CACACA"/>
<path d="M10.2688 11.0998C12.9225 11.0998 15.0738 8.61502 15.0738 5.5499C15.0738 2.48477 12.9225 0 10.2688 0C7.61512 0 5.46387 2.48477 5.46387 5.5499C5.46387 8.61502 7.61512 11.0998 10.2688 11.0998Z" fill="#3F3D56"/>
<path d="M26.8675 11.0998C29.5212 11.0998 31.6724 8.61502 31.6724 5.5499C31.6724 2.48477 29.5212 0 26.8675 0C24.2138 0 22.0625 2.48477 22.0625 5.5499C22.0625 8.61502 24.2138 11.0998 26.8675 11.0998Z" fill="#3F3D56"/>
<path d="M43.4661 11.0998C46.1198 11.0998 48.2711 8.61502 48.2711 5.5499C48.2711 2.48477 46.1198 0 43.4661 0C40.8124 0 38.6611 2.48477 38.6611 5.5499C38.6611 8.61502 40.8124 11.0998 43.4661 11.0998Z" fill="#3F3D56"/>
<path d="M268.585 1.37549H256.794C256.56 1.38073 256.338 1.48931 256.174 1.67791C256.011 1.86652 255.919 2.1201 255.919 2.38422C255.919 2.64833 256.011 2.90191 256.174 3.09052C256.338 3.27912 256.56 3.3877 256.794 3.39294H268.585C268.819 3.3877 269.042 3.27912 269.205 3.09052C269.369 2.90191 269.46 2.64833 269.46 2.38422C269.46 2.1201 269.369 1.86652 269.205 1.67791C269.042 1.48931 268.819 1.38073 268.585 1.37549Z" fill="#3F3D56"/>
<path d="M268.585 5.16211H256.794C256.56 5.16735 256.338 5.27593 256.174 5.46454C256.011 5.65314 255.919 5.90673 255.919 6.17084C255.919 6.43496 256.011 6.68854 256.174 6.87715C256.338 7.06575 256.56 7.17433 256.794 7.17957H268.585C268.819 7.17433 269.042 7.06575 269.205 6.87715C269.369 6.68854 269.46 6.43496 269.46 6.17084C269.46 5.90673 269.369 5.65314 269.205 5.46454C269.042 5.27593 268.819 5.16735 268.585 5.16211Z" fill="#3F3D56"/>
<path d="M268.585 8.9436H256.794C256.56 8.94885 256.338 9.05743 256.174 9.24603C256.011 9.43463 255.919 9.68822 255.919 9.95233C255.919 10.2164 256.011 10.47 256.174 10.6586C256.338 10.8472 256.56 10.9558 256.794 10.9611H268.585C268.819 10.9558 269.042 10.8472 269.205 10.6586C269.369 10.47 269.46 10.2164 269.46 9.95233C269.46 9.68822 269.369 9.43463 269.205 9.24603C269.042 9.05743 268.819 8.94885 268.585 8.9436Z" fill="#3F3D56"/>
<path d="M264.183 35.1992H10.8845C9.48198 35.2016 8.13745 35.8321 7.14569 36.9527C6.15393 38.0732 5.59584 39.5924 5.59375 41.177V42.1411C5.59584 43.7258 6.15393 45.2449 7.14569 46.3654C8.13745 47.486 9.48198 48.1165 10.8845 48.1189H264.183C265.585 48.1165 266.93 47.486 267.922 46.3654C268.913 45.2449 269.471 43.7258 269.474 42.1411V41.177C269.471 39.5924 268.913 38.0732 267.922 36.9527C266.93 35.8321 265.585 35.2016 264.183 35.1992Z" fill="#F0F0F0"/>
<path d="M41.4527 44.0442H17.3416C16.8022 44.0433 16.2851 43.8006 15.9039 43.3693C15.5227 42.938 15.3086 42.3533 15.3086 41.7438C15.3086 41.1343 15.5227 40.5497 15.9039 40.1184C16.2851 39.687 16.8022 39.4443 17.3416 39.4434H41.4527C44.0784 39.402 44.1047 44.086 41.4527 44.0442Z" fill="white"/>
<path d="M113.58 44.0442H89.4686C88.9291 44.0433 88.412 43.8006 88.0308 43.3693C87.6496 42.938 87.4355 42.3533 87.4355 41.7438C87.4355 41.1343 87.6496 40.5497 88.0308 40.1184C88.412 39.687 88.9291 39.4443 89.4686 39.4434H113.58C116.205 39.402 116.232 44.086 113.58 44.0442Z" fill="white"/>
<path d="M185.707 44.0442H161.596C161.056 44.0433 160.539 43.8006 160.158 43.3693C159.777 42.938 159.562 42.3533 159.562 41.7438C159.562 41.1343 159.777 40.5497 160.158 40.1184C160.539 39.687 161.056 39.4443 161.596 39.4434H185.707C188.332 39.402 188.359 44.086 185.707 44.0442Z" fill="white"/>
<path d="M254.095 44.2928H229.984C229.444 44.2928 228.926 44.0504 228.545 43.619C228.163 43.1876 227.948 42.6025 227.948 41.9924C227.948 41.3822 228.163 40.7971 228.545 40.3657C228.926 39.9343 229.444 39.6919 229.984 39.6919H254.095C256.721 39.6505 256.747 44.3346 254.095 44.2928Z" fill="#6C63FF"/>
<path d="M216.477 35.1992H215.598V48.1189H216.477V35.1992Z" fill="white"/>
<path d="M125.459 226.416H22.0827C21.1616 226.415 20.2785 226.001 19.6272 225.265C18.9758 224.529 18.6095 223.532 18.6084 222.491V205.385C18.6095 204.344 18.9758 203.346 19.6272 202.61C20.2785 201.874 21.1616 201.46 22.0827 201.459H125.459C126.38 201.46 127.263 201.874 127.914 202.61C128.566 203.346 128.932 204.344 128.933 205.385V222.491C128.932 223.532 128.566 224.529 127.914 225.265C127.263 226.001 126.38 226.415 125.459 226.416Z" fill="#F0F0F0"/>
<path d="M115.414 223.769H24.4264C23.5053 223.767 22.6222 223.354 21.9709 222.618C21.3196 221.882 20.9532 220.884 20.9521 219.843V208.035C20.9532 206.994 21.3196 205.996 21.9709 205.26C22.6222 204.524 23.5053 204.11 24.4264 204.109H123.115C124.036 204.11 124.919 204.524 125.571 205.26C126.222 205.996 126.588 206.994 126.589 208.035V211.142C126.586 214.49 125.408 217.699 123.313 220.066C121.218 222.433 118.377 223.765 115.414 223.769Z" fill="white"/>
<path d="M84.0284 212.721H42.479C42.2414 212.721 42.0135 212.614 41.8454 212.424C41.6774 212.235 41.583 211.977 41.583 211.709C41.583 211.44 41.6774 211.183 41.8454 210.993C42.0135 210.803 42.2414 210.696 42.479 210.696H84.0284C84.266 210.696 84.4939 210.803 84.662 210.993C84.83 211.183 84.9244 211.44 84.9244 211.709C84.9244 211.977 84.83 212.235 84.662 212.424C84.4939 212.614 84.266 212.721 84.0284 212.721Z" fill="#E6E6E6"/>
<path d="M105.061 216.862H42.4791C42.3612 216.862 42.2445 216.836 42.1356 216.785C42.0266 216.734 41.9276 216.66 41.8442 216.566C41.7608 216.472 41.6946 216.36 41.6495 216.237C41.6043 216.114 41.5811 215.982 41.5811 215.849C41.5811 215.716 41.6043 215.584 41.6495 215.461C41.6946 215.338 41.7608 215.227 41.8442 215.133C41.9276 215.039 42.0266 214.964 42.1356 214.913C42.2445 214.863 42.3612 214.837 42.4791 214.837H105.061C105.299 214.838 105.526 214.944 105.694 215.134C105.861 215.324 105.955 215.581 105.955 215.849C105.955 216.117 105.861 216.375 105.694 216.564C105.526 216.754 105.299 216.861 105.061 216.862Z" fill="#E6E6E6"/>
<path d="M132.062 181.887H14.1911C13.2506 181.886 12.3489 181.463 11.6838 180.712C11.0187 179.96 10.6446 178.941 10.6436 177.879V76.0779C10.6446 75.0153 11.0187 73.9965 11.6838 73.2451C12.3489 72.4937 13.2506 72.071 14.1911 72.0698H132.062C133.002 72.071 133.904 72.4937 134.569 73.2451C135.234 73.9965 135.608 75.0153 135.609 76.0779V177.879C135.608 178.941 135.234 179.96 134.569 180.712C133.904 181.463 133.002 181.886 132.062 181.887Z" fill="white"/>
<path d="M132.062 182.384H14.1915C13.1344 182.383 12.1209 181.908 11.3734 181.063C10.6258 180.218 10.2053 179.073 10.2041 177.879V76.0779C10.2053 74.8835 10.6258 73.7385 11.3734 72.8939C12.1209 72.0494 13.1344 71.5743 14.1915 71.573H132.062C133.119 71.5743 134.133 72.0494 134.88 72.8939C135.628 73.7385 136.048 74.8835 136.049 76.0779V177.879C136.048 179.073 135.628 180.218 134.88 181.063C134.133 181.908 133.119 182.383 132.062 182.384ZM14.1915 72.5668C13.3676 72.5679 12.5777 72.9381 11.995 73.5963C11.4124 74.2546 11.0847 75.147 11.0837 76.078V177.879C11.0846 178.81 11.4123 179.702 11.995 180.361C12.5776 181.019 13.3675 181.389 14.1915 181.39H132.062C132.886 181.389 133.676 181.019 134.259 180.361C134.841 179.702 135.169 178.81 135.17 177.879V76.0779C135.169 75.147 134.841 74.2546 134.259 73.5963C133.676 72.9381 132.886 72.5678 132.062 72.5668L14.1915 72.5668Z" fill="#F0F0F0"/>
<path d="M10.916 162.508V177.879C10.9173 178.86 11.2628 179.8 11.8767 180.494C12.4907 181.188 13.323 181.578 14.1913 181.579H132.062C132.93 181.578 133.763 181.188 134.377 180.494C134.991 179.8 135.336 178.86 135.337 177.879V162.508H10.916Z" fill="#F0F0F0"/>
<path d="M12.0269 72.7184L11.5527 73.5552L135.1 162.926L135.575 162.089L12.0269 72.7184Z" fill="#F0F0F0"/>
<path d="M135.449 72.7185L11.9014 162.089L12.3756 162.926L135.923 73.5553L135.449 72.7185Z" fill="#F0F0F0"/>
<path d="M239.851 292.078L234.402 292.077L231.81 268.331L239.852 268.331L239.851 292.078Z" fill="#A0616A"/>
<path d="M239.706 290.066L233.892 287.397L233.72 287.318L230.51 290.066C228.748 290.066 227.054 290.834 225.781 292.211C224.509 293.587 223.756 295.466 223.68 297.455C223.671 297.564 223.671 297.678 223.671 297.793V298.046H241.241V290.066H239.706Z" fill="#2F2E41"/>
<path d="M227.09 286.348L221.95 288.392L212.528 266.963L220.115 263.947L227.09 286.348Z" fill="#A0616A"/>
<path d="M226.362 284.505L220.093 284.168L219.908 284.158L217.687 287.954C216.025 288.614 214.653 289.974 213.857 291.75C213.061 293.526 212.902 295.581 213.415 297.485C213.438 297.592 213.472 297.699 213.505 297.807L213.58 298.046L230.154 291.457L227.81 283.929L226.362 284.505Z" fill="#2F2E41"/>
<path d="M241.776 189.686C246.761 189.467 240.586 234.353 240.586 234.353C240.586 234.353 242.392 273.76 242.009 275.829C241.626 277.897 241.961 283.474 241.961 283.474C240.984 281.466 230.908 282.982 230.908 282.982L229.537 243.042L222.538 211.041L212.835 232.492L222.135 265.417C222.135 265.417 225.901 269.355 225.501 270.911C225.101 272.467 215.236 275.976 213.423 276.055C211.61 276.135 212.429 273.535 212.341 270.975C212.253 268.414 203.723 244.686 200.722 236.612C197.722 228.539 200.054 217.154 201.586 208.882C203.118 200.61 211.175 185.086 211.175 185.086C221.177 172.34 236.791 189.904 241.776 189.686Z" fill="#2F2E41"/>
<path d="M181.024 153.412C181.297 154.001 181.681 154.516 182.149 154.92C182.617 155.323 183.158 155.606 183.733 155.748C184.309 155.89 184.904 155.887 185.479 155.741C186.053 155.595 186.592 155.308 187.058 154.9L199.046 163.737L199.01 155.333L187.631 148.23C186.974 147.391 186.067 146.855 185.083 146.721C184.098 146.587 183.105 146.866 182.29 147.505C181.476 148.144 180.897 149.098 180.664 150.187C180.43 151.275 180.558 152.423 181.024 153.412Z" fill="#A0616A"/>
<path d="M239.188 196.881C226.825 196.881 220.012 194.085 216.394 191.589C211.971 188.536 211.214 185.317 211.184 185.181L211.175 185.142L211.605 179.02L211.794 178.543C212.661 176.349 212.777 173.868 212.117 171.583L212.103 171.536L212.107 171.487L214.997 129.128L225.227 125.342L228.203 121.964L241.453 121.747L243.299 125.975L253.745 130.418L248.613 164.932L246.153 169.723L247.143 174.942L247.136 174.989L243.909 196.754L243.731 196.763C242.139 196.843 240.625 196.883 239.188 196.881Z" fill="#3F3D56"/>
<path d="M207.205 170.455L202.354 167.206L202.051 166.71C201.433 165.706 200.616 164.88 199.665 164.297C198.714 163.715 197.655 163.393 196.573 163.357L196.517 163.355L189.837 158.917L192.606 149.753L203.078 153.248L210.378 132.753C210.779 131.628 211.448 130.65 212.312 129.928C213.175 129.207 214.199 128.77 215.269 128.667C216.339 128.564 217.413 128.798 218.373 129.343C219.332 129.888 220.138 130.724 220.703 131.756C221.28 132.835 221.58 134.075 221.568 135.336V148.747L221.524 148.813L207.205 170.455Z" fill="#3F3D56"/>
<path d="M239.63 188.999C239.733 188.344 239.963 187.722 240.302 187.179C240.641 186.635 241.082 186.182 241.593 185.851C242.104 185.52 242.673 185.32 243.26 185.265C243.846 185.21 244.437 185.3 244.989 185.531L254.074 173.032L256.274 181.061L247.31 191.698C246.905 192.721 246.183 193.541 245.28 194.003C244.377 194.464 243.355 194.535 242.408 194.203C241.462 193.87 240.656 193.156 240.144 192.197C239.632 191.238 239.449 190.1 239.63 188.999Z" fill="#A0616A"/>
<path d="M253.212 187.419L247.18 180.603L251.02 170.031L256.585 161.446C250.655 158.184 246.203 150.456 242.978 144.06L242.941 143.988L243.745 136.88C243.932 135.218 244.522 133.646 245.448 132.337C246.254 131.199 247.289 130.295 248.467 129.701C249.645 129.107 250.931 128.841 252.219 128.924C253.507 129.007 254.758 129.437 255.869 130.179C256.979 130.92 257.916 131.952 258.602 133.186L269.417 160.351L269.296 160.557L260.596 177.312L258.222 179.052L253.212 187.419Z" fill="#3F3D56"/>
<path d="M244.341 107.498C243.943 110.773 242.411 113.737 240.081 115.736C237.75 117.736 234.813 118.609 231.913 118.163C229.014 117.717 226.39 115.989 224.617 113.358C222.845 110.728 222.069 107.41 222.461 104.133L222.482 103.956C222.939 100.724 224.503 97.8237 226.836 95.882C229.169 93.9403 232.084 93.1126 234.952 93.5773C237.82 94.042 240.411 95.7619 242.167 98.3661C243.923 100.97 244.703 104.25 244.338 107.497L244.341 107.498Z" fill="#A0616A"/>
<path d="M241.531 113.923C242.098 112.622 242.68 111.225 242.521 109.786C242.362 108.347 241.112 106.971 239.886 107.399C239.152 107.654 238.598 108.473 237.831 108.515C236.776 108.572 236.171 107.208 235.843 106.074L234.505 101.454C233.221 102.585 231.732 103.382 230.143 103.787C228.555 104.193 226.907 104.197 225.317 103.8C224.076 103.479 222.821 102.854 222.093 101.673C221.364 100.492 221.369 98.661 222.368 97.7682C222.858 97.3304 223.51 97.1641 223.978 96.697C224.268 96.4072 224.468 96.0195 224.549 95.5912C224.629 95.1629 224.585 94.7168 224.423 94.319C224.262 93.9211 223.991 93.5925 223.651 93.382C223.312 93.1714 222.921 93.09 222.537 93.1498L225.905 92.6742L224.901 90.6239C225.283 90.9172 225.714 91.1173 226.168 91.2113C226.622 91.3054 227.088 91.2913 227.536 91.1701C228.442 90.9858 229.296 90.5643 230.182 90.2832C232.33 89.6634 234.599 89.8528 236.644 90.8228C238.688 91.7927 240.396 93.4901 241.509 95.6571C242.338 95.3445 243.231 95.3237 244.07 95.5976C244.909 95.8714 245.655 96.4269 246.209 97.1905C247.11 98.4833 247.356 100.208 247.391 101.854C247.456 105.098 246.83 108.312 245.565 111.226C245.202 112.151 244.681 112.986 244.032 113.683C243.705 114.029 243.315 114.289 242.889 114.447C242.464 114.604 242.013 114.654 241.568 114.593" fill="#2F2E41"/>
<path d="M62.6158 101.088C62.7959 103.993 63.5535 106.816 64.8321 109.345C67.5269 114.692 72.1482 118.563 77.1254 120.864C83.3437 123.739 90.2754 123.828 96.8746 123.187C103.004 122.592 109.071 121.211 115.223 120.927C119.981 120.755 124.743 120.883 129.488 121.311C138.694 122.05 147.861 123.419 156.969 125.08C159.436 125.524 161.898 126.001 164.354 126.512C164.586 126.535 164.816 126.583 165.04 126.656C165.085 126.676 165.156 126.66 165.197 126.689C165.271 126.742 164.897 126.556 165.124 126.767C165.44 127.142 165.722 127.552 165.965 127.99L169.329 132.881C170.294 134.284 171.189 135.988 172.436 137.094C173.315 137.861 174.375 138.317 175.484 138.404C176.592 138.492 177.698 138.206 178.663 137.584C179.671 136.865 180.475 135.833 180.979 134.612C181.752 133.009 182.676 131.503 183.732 130.121C187.734 124.846 193.297 121.602 197.949 117.163C200.202 115.101 202.126 112.617 203.635 109.82C204.922 107.288 205.723 104.478 205.984 101.574C206.541 95.6746 204.939 89.6589 202.244 84.6405C199.313 79.2492 195.103 74.8947 190.091 72.0719C184.46 68.8309 178.23 67.2523 171.985 66.4656C165.354 65.6304 158.647 65.633 151.984 65.7173C144.506 65.8113 137.042 66.1829 129.591 66.8319C122.131 67.4844 114.699 68.4118 107.297 69.6142C100.195 70.7679 93.0057 71.9705 86.0534 74.0119C79.9116 75.8154 73.7872 78.6343 69.2009 83.7419C65.123 88.2832 62.2868 94.4977 62.6158 101.088Z" fill="#6C63FF"/>
<path d="M96.9471 102.965C96.6434 102.949 96.3459 102.863 96.0733 102.711C95.8006 102.559 95.5587 102.346 95.3627 102.083C95.1668 101.821 95.0211 101.515 94.9348 101.186C94.8485 100.857 94.8234 100.511 94.8612 100.17L95.019 98.7662C95.0492 98.497 95.021 98.2235 94.9369 97.9693C94.8528 97.715 94.7153 97.4877 94.5363 97.3068L93.6031 96.3646C93.2975 96.0562 93.0744 95.6573 92.959 95.2131C92.8436 94.7689 92.8405 94.297 92.9501 93.8509C93.0597 93.4048 93.2776 93.0023 93.5791 92.6888C93.8807 92.3753 94.2538 92.1634 94.6564 92.0771L95.8867 91.8131C96.1225 91.7625 96.3439 91.648 96.5319 91.4792C96.7198 91.3105 96.8686 91.0927 96.9655 90.8445L97.4705 89.5489C97.6358 89.1254 97.9027 88.7625 98.241 88.5014C98.5793 88.2402 98.9755 88.0912 99.3848 88.0712C99.7941 88.0511 100.2 88.1608 100.557 88.3879C100.914 88.615 101.208 88.9504 101.405 89.3562L102.007 90.5964C102.123 90.8346 102.288 91.0374 102.488 91.1874C102.688 91.3374 102.918 91.4301 103.157 91.4574L104.402 91.5996C104.81 91.6462 105.198 91.8207 105.523 92.1035C105.847 92.3863 106.095 92.766 106.238 93.1997C106.382 93.6334 106.415 94.1037 106.334 94.5576C106.253 95.0115 106.061 95.4307 105.781 95.7679L104.923 96.7983C104.758 96.9957 104.639 97.2354 104.574 97.4968C104.51 97.7582 104.503 98.0333 104.554 98.2984L104.819 99.682C104.905 100.134 104.878 100.605 104.741 101.041C104.603 101.477 104.36 101.86 104.039 102.149C103.718 102.437 103.333 102.617 102.926 102.671C102.519 102.724 102.107 102.648 101.736 102.451L100.604 101.848C100.387 101.731 100.148 101.677 99.9077 101.688C99.6677 101.7 99.4338 101.778 99.2263 101.914L98.1441 102.627C97.7818 102.866 97.3665 102.983 96.9471 102.965Z" fill="white"/>
<path d="M114.581 102.386C114.022 102.357 113.494 102.09 113.102 101.64C112.865 101.356 112.688 101.016 112.585 100.643C112.482 100.271 112.455 99.8775 112.506 99.4918L112.651 98.2039C112.682 97.9297 112.653 97.6511 112.568 97.3921C112.482 97.1331 112.342 96.9016 112.16 96.7174L111.294 95.8434C111.039 95.5972 110.835 95.2897 110.698 94.9435C110.561 94.5972 110.495 94.2207 110.503 93.8416C110.522 93.28 110.709 92.7422 111.034 92.3165C111.358 91.8908 111.801 91.6024 112.29 91.4985L113.506 91.2375C113.747 91.1859 113.972 91.069 114.164 90.8969C114.356 90.7248 114.507 90.5026 114.606 90.2496L115.059 89.0869C115.221 88.6456 115.488 88.2634 115.829 87.9823C116.171 87.7012 116.575 87.5321 116.997 87.4937C117.41 87.4672 117.821 87.5738 118.183 87.8011C118.544 88.0284 118.841 88.367 119.039 88.7775L119.634 90.0034C119.752 90.2461 119.92 90.4527 120.124 90.6055C120.328 90.7583 120.563 90.8527 120.806 90.8805L121.961 91.0123C122.295 91.0419 122.62 91.1555 122.911 91.345C123.202 91.5344 123.452 91.7948 123.643 92.1073C123.919 92.5743 124.047 93.1334 124.006 93.6933C123.964 94.2532 123.756 94.7806 123.415 95.1893L122.567 96.2077C122.399 96.4089 122.278 96.6531 122.212 96.9193C122.147 97.1854 122.14 97.4656 122.191 97.7356L122.435 99.0131C122.514 99.3818 122.519 99.7656 122.45 100.137C122.381 100.508 122.24 100.857 122.037 101.159C121.731 101.603 121.299 101.915 120.815 102.045C120.33 102.175 119.82 102.114 119.37 101.872L118.249 101.275C118.028 101.158 117.785 101.102 117.541 101.114C117.297 101.126 117.059 101.205 116.848 101.344L115.778 102.048C115.416 102.287 115 102.405 114.581 102.386Z" fill="white"/>
<path d="M132.261 102.302C131.957 102.286 131.659 102.2 131.387 102.048C131.114 101.896 130.872 101.683 130.676 101.42C130.48 101.157 130.335 100.852 130.248 100.523C130.162 100.193 130.137 99.8476 130.175 99.5068L130.333 98.1031C130.363 97.8339 130.334 97.5604 130.25 97.3062C130.166 97.052 130.029 96.8246 129.85 96.6437L128.917 95.7016C128.611 95.3931 128.388 94.9943 128.272 94.55C128.157 94.1058 128.154 93.6339 128.264 93.1878C128.373 92.7417 128.591 92.3392 128.893 92.0257C129.194 91.7122 129.567 91.5003 129.97 91.414L131.2 91.15C131.436 91.0994 131.657 90.9849 131.845 90.8161C132.033 90.6474 132.182 90.4296 132.279 90.1815L132.784 88.8858C132.949 88.4623 133.216 88.0994 133.554 87.8383C133.893 87.5772 134.289 87.4281 134.698 87.4081C135.108 87.388 135.514 87.4977 135.871 87.7248C136.228 87.9519 136.521 88.2873 136.719 88.6931L137.321 89.9334C137.436 90.1715 137.601 90.3743 137.801 90.5243C138.002 90.6743 138.231 90.767 138.47 90.7943L139.716 90.9365C140.124 90.9831 140.512 91.1576 140.836 91.4404C141.16 91.7232 141.408 92.1029 141.552 92.5366C141.695 92.9703 141.728 93.4406 141.648 93.8945C141.567 94.3484 141.375 94.7676 141.094 95.1048L140.236 96.1352C140.072 96.3326 139.952 96.5723 139.888 96.8337C139.824 97.0951 139.817 97.3702 139.868 97.6353L140.132 99.0189C140.219 99.4713 140.192 99.942 140.054 100.378C139.916 100.814 139.673 101.197 139.353 101.485C139.032 101.773 138.646 101.954 138.239 102.008C137.832 102.061 137.42 101.985 137.05 101.787L135.917 101.185C135.7 101.068 135.461 101.014 135.221 101.025C134.981 101.037 134.747 101.115 134.54 101.251L133.458 101.963C133.095 102.203 132.68 102.32 132.261 102.302Z" fill="white"/>
<path opacity="0.2" d="M149.457 101.775C149.153 101.759 148.856 101.673 148.583 101.521C148.31 101.369 148.068 101.155 147.873 100.893C147.677 100.63 147.531 100.325 147.445 99.9956C147.358 99.6663 147.333 99.3205 147.371 98.9797L147.529 97.576C147.559 97.3068 147.531 97.0333 147.447 96.7791C147.363 96.5249 147.225 96.2975 147.046 96.1166L146.113 95.1745C145.807 94.866 145.584 94.4672 145.469 94.0229C145.353 93.5787 145.35 93.1068 145.46 92.6607C145.569 92.2146 145.787 91.8121 146.089 91.4986C146.39 91.1851 146.764 90.9732 147.166 90.8869L148.396 90.6229C148.632 90.5723 148.854 90.4578 149.042 90.289C149.23 90.1203 149.378 89.9025 149.475 89.6544L149.98 88.3587C150.146 87.9352 150.412 87.5723 150.751 87.3112C151.089 87.0501 151.485 86.901 151.895 86.881C152.304 86.8609 152.71 86.9707 153.067 87.1977C153.424 87.4248 153.718 87.7602 153.915 88.166L154.517 89.4063C154.632 89.6444 154.797 89.8472 154.998 89.9972C155.198 90.1472 155.428 90.2399 155.667 90.2672L156.912 90.4094C157.32 90.456 157.708 90.6305 158.032 90.9133C158.357 91.1961 158.605 91.5758 158.748 92.0095C158.892 92.4432 158.925 92.9136 158.844 93.3674C158.763 93.8213 158.571 94.2405 158.29 94.5777L157.433 95.6081C157.268 95.8055 157.148 96.0453 157.084 96.3066C157.02 96.568 157.013 96.8431 157.064 97.1082L157.329 98.4918C157.415 98.9442 157.388 99.4149 157.25 99.8508C157.112 100.287 156.87 100.67 156.549 100.958C156.228 101.246 155.843 101.427 155.436 101.481C155.029 101.534 154.617 101.458 154.246 101.26L153.114 100.657C152.896 100.541 152.658 100.487 152.417 100.498C152.177 100.51 151.944 100.587 151.736 100.724L150.654 101.436C150.292 101.676 149.876 101.793 149.457 101.775Z" fill="black"/>
<path opacity="0.2" d="M166.653 101.247C166.349 101.232 166.052 101.146 165.779 100.994C165.507 100.842 165.265 100.628 165.069 100.366C164.873 100.103 164.727 99.7978 164.641 99.4685C164.555 99.1392 164.529 98.7934 164.567 98.4526L164.725 97.0489C164.755 96.7797 164.727 96.5062 164.643 96.252C164.559 95.9978 164.421 95.7704 164.242 95.5895L163.309 94.6474C163.004 94.3389 162.78 93.9401 162.665 93.4958C162.55 93.0516 162.547 92.5797 162.656 92.1336C162.766 91.6875 162.984 91.285 163.285 90.9715C163.587 90.658 163.96 90.4461 164.362 90.3598L165.593 90.0958C165.829 90.0452 166.05 89.9307 166.238 89.7619C166.426 89.5932 166.575 89.3754 166.672 89.1273L167.177 87.8316C167.342 87.4081 167.609 87.0452 167.947 86.7841C168.285 86.523 168.682 86.3739 169.091 86.3539C169.5 86.3338 169.906 86.4436 170.263 86.6706C170.62 86.8977 170.914 87.2331 171.111 87.6389L171.713 88.8792C171.829 89.1173 171.994 89.3201 172.194 89.4701C172.394 89.6201 172.624 89.7128 172.863 89.7401L174.108 89.8823C174.516 89.9289 174.904 90.1035 175.229 90.3862C175.553 90.669 175.801 91.0487 175.944 91.4824C176.088 91.9161 176.121 92.3865 176.04 92.8403C175.959 93.2942 175.768 93.7134 175.487 94.0506L174.629 95.081C174.464 95.2784 174.345 95.5182 174.28 95.7796C174.216 96.0409 174.209 96.316 174.26 96.5811L174.525 97.9647C174.611 98.4171 174.584 98.8878 174.447 99.3237C174.309 99.7596 174.066 100.143 173.745 100.431C173.424 100.719 173.039 100.9 172.632 100.954C172.225 101.007 171.813 100.931 171.442 100.733L170.31 100.13C170.093 100.014 169.854 99.9595 169.614 99.9711C169.374 99.9828 169.14 100.06 168.932 100.197L167.85 100.909C167.488 101.149 167.073 101.266 166.653 101.247Z" fill="black"/>
<path d="M276.213 267.024L276.716 254.244C281.96 251.077 287.809 249.404 293.756 249.371C285.572 256.93 286.595 271.503 281.046 281.67C279.294 284.825 276.936 287.495 274.146 289.481C271.357 291.467 268.208 292.719 264.932 293.143L258.083 297.881C257.144 291.961 257.351 285.882 258.691 280.062C260.031 274.242 262.471 268.819 265.844 264.168C267.76 261.579 269.956 259.274 272.381 257.305C274.021 262.192 276.213 267.024 276.213 267.024Z" fill="#F2F2F2"/>
<path d="M315.477 299H131.912C131.773 299 131.64 298.938 131.542 298.827C131.444 298.716 131.389 298.565 131.389 298.408C131.389 298.251 131.444 298.101 131.542 297.99C131.64 297.879 131.773 297.817 131.912 297.817H315.477C315.616 297.817 315.749 297.879 315.847 297.99C315.945 298.101 316 298.251 316 298.408C316 298.565 315.945 298.716 315.847 298.827C315.749 298.938 315.616 299 315.477 299Z" fill="#CACACA"/>
</g>
<defs>
<clipPath id="clip0_1472_2709">
<rect width="316" height="299" fill="white"/>
</clipPath>
</defs>
</svg>
