<svg width="133" height="21" viewBox="0 0 133 21" fill="none" xmlns="http://www.w3.org/2000/svg">
<path d="M1.008 20V19.664C1.8 19.4 1.968 18.68 1.968 16.952V7.688C1.968 4.76 1.44 3.92 0.336 3.536V3.2H3.936L9.864 13.04L15.504 3.2H18.912V3.536C17.808 3.92 17.28 4.76 17.28 7.688V16.952C17.28 18.68 17.448 19.4 18.24 19.664V20H13.776V19.664C14.568 19.4 14.736 18.68 14.736 16.952V5.336L8.976 15.44H8.424L2.4 5.552V15.512C2.4 18.44 2.976 19.28 4.224 19.664V20H1.008ZM21.6711 20V19.664C22.4631 19.4 22.6311 18.68 22.6311 16.952V11.432C22.6311 10.016 22.2711 9.776 21.6711 9.512V9.176L24.8391 7.784L25.0791 7.976V16.952C25.0791 18.68 25.2471 19.4 26.0391 19.664V20H21.6711ZM22.0791 5.336C22.0791 4.4 22.7991 3.68 23.7111 3.68C24.6711 3.68 25.3431 4.4 25.3431 5.336C25.3431 6.248 24.6231 6.968 23.7111 6.968C22.7991 6.968 22.0791 6.248 22.0791 5.336ZM28.3967 20V19.664C29.1887 19.4 29.3567 18.68 29.3567 16.952V11.432C29.3567 10.016 28.9967 9.776 28.3967 9.512V9.176L31.5647 7.784L31.8047 7.976V9.992C33.1247 8.912 34.8527 7.832 36.7247 7.832C38.9327 7.832 40.4207 8.984 40.4207 11.792V16.952C40.4207 18.68 40.5887 19.4 41.3807 19.664V20H37.0127V19.664C37.8047 19.4 37.9727 18.68 37.9727 16.952V12.224C37.9727 10.064 37.0367 8.792 35.2607 8.792C34.1327 8.792 33.1007 9.344 31.8047 10.4V16.952C31.8047 18.68 31.9727 19.4 32.7647 19.664V20H28.3967ZM48.6735 20.288C45.6255 20.24 43.5615 17.432 43.5615 14.456C43.5615 10.784 46.0815 7.856 50.2575 7.856C51.2655 7.856 52.1055 8.096 52.8255 8.456V4.232C52.8255 2.816 52.4655 2.576 51.8655 2.312V1.976L55.0335 0.584L55.2735 0.775999V16.952C55.2735 18.68 55.4415 19.4 56.2335 19.664V20H53.7855C53.1615 20 52.8255 19.664 52.8255 19.04V18.032C51.9135 19.088 50.4735 20.336 48.6735 20.288ZM45.9135 12.512C45.9135 14.792 46.7055 18.848 50.1615 18.848C51.2175 18.848 52.1295 18.272 52.8255 17.528V12.224C52.8255 10.448 51.2655 8.36 49.2495 8.36C46.6095 8.36 45.9135 10.616 45.9135 12.512ZM58.7571 20V19.664C59.5491 19.4 59.7171 18.68 59.7171 16.952V6.248C59.7171 4.52 59.5491 3.8 58.7571 3.536V3.2H64.6851C68.6211 3.2 70.0611 4.424 70.0611 6.368C70.0611 8 69.0291 9.488 66.0051 10.016C69.9651 10.136 71.9811 11.96 72.0051 14.36C72.0531 17.168 69.8691 20 63.9651 20H58.7571ZM62.2611 17.528C62.2611 19.256 62.4771 19.616 63.5091 19.616H64.1811C67.6371 19.616 69.1491 17.792 69.1491 15.248C69.1491 12.368 67.5411 10.328 63.9651 10.328H62.2611V17.528ZM62.2611 9.944H64.3971C66.1491 9.944 67.2051 8.6 67.2051 6.92C67.2051 4.808 65.6931 3.584 63.2451 3.584H62.2611V9.944ZM74.4731 20V19.664C75.2651 19.4 75.4331 18.68 75.4331 16.952V4.232C75.4331 2.816 75.0731 2.576 74.4731 2.312V1.976L77.6411 0.584L77.8811 0.775999V16.952C77.8811 18.68 78.0491 19.4 78.8411 19.664V20H74.4731ZM87.7714 20.24C84.6514 20.24 81.3634 18.392 81.3634 14.312C81.3634 10.424 84.4834 7.832 87.7714 7.832C90.7474 7.832 94.1554 9.584 94.1554 13.808C94.1554 17.912 90.6034 20.24 87.7714 20.24ZM83.7634 12.512C83.7634 15.344 85.4434 19.712 88.6114 19.712C90.9634 19.712 91.7314 17.672 91.7314 15.632C91.7314 12.584 89.6434 8 86.5474 8.312C84.4594 8.528 83.7634 10.448 83.7634 12.512ZM103.028 20.24C99.9083 20.24 96.6203 18.392 96.6203 14.312C96.6203 10.424 99.7403 7.832 103.028 7.832C106.004 7.832 109.412 9.584 109.412 13.808C109.412 17.912 105.86 20.24 103.028 20.24ZM99.0203 12.512C99.0203 15.344 100.7 19.712 103.868 19.712C106.22 19.712 106.988 17.672 106.988 15.632C106.988 12.584 104.9 8 101.804 8.312C99.7163 8.528 99.0203 10.448 99.0203 12.512ZM112.04 20V19.664C112.832 19.4 113 18.68 113 16.952V11.432C113 10.016 112.64 9.776 112.04 9.512V9.176L115.208 7.784L115.448 7.976V9.992C116.768 8.912 118.496 7.832 120.368 7.832C122.048 7.832 123.152 8.48 123.608 10.016C124.928 8.936 126.68 7.832 128.576 7.832C130.784 7.832 132.032 8.984 132.032 11.792V16.952C132.032 18.68 132.2 19.4 132.992 19.664V20H128.624V19.664C129.416 19.4 129.584 18.68 129.584 16.952V12.224C129.584 10.064 128.888 8.792 127.112 8.792C125.984 8.792 124.952 9.344 123.68 10.352C123.776 10.784 123.824 11.264 123.824 11.792V16.952C123.824 18.68 123.992 19.4 124.784 19.664V20H120.416V19.664C121.208 19.4 121.376 18.68 121.376 16.952V12.224C121.376 10.064 120.68 8.792 118.904 8.792C117.776 8.792 116.744 9.344 115.448 10.4V16.952C115.448 18.68 115.616 19.4 116.408 19.664V20H112.04Z" fill="#F1EFE9"/>
</svg>
