<svg width="33" height="32" viewBox="0 0 33 32" fill="none" xmlns="http://www.w3.org/2000/svg">
<path d="M25.8333 5.33335H24.5V2.66669H21.8333V5.33335H11.1667V2.66669H8.5V5.33335H7.16667C5.68667 5.33335 4.51333 6.53335 4.51333 8.00002L4.5 26.6667C4.5 27.3739 4.78095 28.0522 5.28105 28.5523C5.78115 29.0524 6.45942 29.3334 7.16667 29.3334H25.8333C27.3 29.3334 28.5 28.1334 28.5 26.6667V8.00002C28.5 6.53335 27.3 5.33335 25.8333 5.33335ZM25.8333 26.6667H7.16667V13.3334H25.8333V26.6667ZM12.5 18.6667H9.83333V16H12.5V18.6667ZM17.8333 18.6667H15.1667V16H17.8333V18.6667ZM23.1667 18.6667H20.5V16H23.1667V18.6667ZM12.5 24H9.83333V21.3334H12.5V24ZM17.8333 24H15.1667V21.3334H17.8333V24ZM23.1667 24H20.5V21.3334H23.1667V24Z" fill="#4B463E"/>
</svg>
