<svg width="33" height="32" viewBox="0 0 33 32" fill="none" xmlns="http://www.w3.org/2000/svg">
<path d="M16.487 2.66669C9.12699 2.66669 3.16699 8.64002 3.16699 16C3.16699 23.36 9.12699 29.3334 16.487 29.3334C23.8603 29.3334 29.8337 23.36 29.8337 16C29.8337 8.64002 23.8603 2.66669 16.487 2.66669ZM16.5003 26.6667C10.607 26.6667 5.83366 21.8934 5.83366 16C5.83366 10.1067 10.607 5.33335 16.5003 5.33335C22.3937 5.33335 27.167 10.1067 27.167 16C27.167 21.8934 22.3937 26.6667 16.5003 26.6667Z" fill="#4B463E"/>
<path d="M17.167 9.33331H15.167V17.3333L22.167 21.5333L23.167 19.8933L17.167 16.3333V9.33331Z" fill="black"/>
</svg>
