<svg width="24" height="24" viewBox="0 0 24 24" fill="none" xmlns="http://www.w3.org/2000/svg">
<mask id="mask0_161_1279" style="mask-type:luminance" maskUnits="userSpaceOnUse" x="0" y="0" width="24" height="24">
<path d="M9.51789 22C9.02789 20.4023 8.28872 19.2112 7.30039 18.4265C5.81789 17.25 3.46239 17.9815 2.59239 16.7675C1.72239 15.5535 3.20189 13.3215 3.72089 12.0045C4.23989 10.6875 1.73089 10.222 2.02389 9.848C2.21889 9.59867 3.48706 8.87933 5.82839 7.69C6.49339 3.89667 8.95022 2 13.1989 2C19.5719 2 21.9999 7.403 21.9999 10.84C21.9999 14.276 19.0599 17.978 14.8719 18.7765C14.4976 19.3218 15.0376 20.3963 16.4919 22" stroke="white" stroke-width="2.3335" stroke-linecap="round" stroke-linejoin="round"/>
<path fill-rule="evenodd" clip-rule="evenodd" d="M9.7501 7.25006C9.4231 8.51706 9.52027 9.40689 10.0416 9.91956C10.5626 10.4319 11.4506 10.7669 12.7056 10.9246C12.4206 12.5589 12.7678 13.3256 13.7471 13.2246C14.7261 13.1239 15.3144 12.7172 15.5121 12.0046C17.0421 12.4346 17.8714 12.0746 18.0001 10.9246C18.1926 9.19956 17.2626 7.82406 16.8811 7.82406C16.4996 7.82406 15.5121 7.77756 15.5121 7.25006C15.5121 6.72256 14.3581 6.42506 13.3166 6.42506C12.2751 6.42506 12.9016 5.72256 11.4716 6.00006C10.5183 6.18506 9.94444 6.60173 9.7501 7.25006Z" fill="#555555" stroke="white" stroke-width="2" stroke-linejoin="round"/>
<path d="M15.25 12.75C14.7415 13.0655 14.044 13.59 13.75 14C13.0155 15.025 12.42 15.649 12.29 16.304" stroke="white" stroke-width="2" stroke-linecap="round"/>
</mask>
<g mask="url(#mask0_161_1279)">
<path d="M0 0H24V24H0V0Z" fill="black"/>
</g>
</svg>
