<svg width="24" height="22" viewBox="0 0 24 22" fill="none" xmlns="http://www.w3.org/2000/svg">
<path d="M1.3333 20.3334L0.0932964 19.84C0.00469531 20.063 -0.0221194 20.3057 0.0156785 20.5426C0.0534764 20.7795 0.154487 21.0018 0.308062 21.1861C0.461638 21.3704 0.662088 21.5098 0.888284 21.5897C1.11448 21.6696 1.35804 21.687 1.5933 21.64L1.3333 20.3334ZM7.60796 19.0854L8.23996 17.9107L7.8173 17.684L7.34796 17.7774L7.60796 19.0854ZM3.49863 14.8894L4.73863 15.3827L4.95596 14.8307L4.69463 14.2987L3.49863 14.8894ZM21.3333 11C21.3333 15.328 17.5293 19 12.6266 19V21.6667C18.8146 21.6667 24 16.9814 24 11H21.3333ZM3.9213 11C3.9213 6.67204 7.72663 3.00004 12.628 3.00004V0.333374C6.43996 0.333374 1.2533 5.01871 1.2533 11H3.9213ZM12.628 3.00004C17.5293 3.00004 21.3333 6.67204 21.3333 11H24C24 5.01871 18.816 0.333374 12.628 0.333374V3.00004ZM12.6266 19C11.02 19 9.52396 18.6 8.23996 17.9107L6.97596 20.2587C8.71373 21.1903 10.6549 21.6742 12.6266 21.6667V19ZM1.5933 21.64L7.86796 20.392L7.34796 17.7774L1.0733 19.0254L1.5933 21.6414V21.64ZM4.69463 14.2987C4.18703 13.273 3.92332 12.1444 3.9213 11H1.2533C1.2533 12.6 1.6293 14.1174 2.3013 15.48L4.69463 14.2987ZM2.25996 14.396L0.0932964 19.8414L2.57063 20.8254L4.73596 15.3814L2.25863 14.396H2.25996Z" fill="#4B463E"/>
<path d="M8.00008 12.3334C8.73646 12.3334 9.33341 11.7365 9.33341 11.0001C9.33341 10.2637 8.73646 9.66675 8.00008 9.66675C7.2637 9.66675 6.66675 10.2637 6.66675 11.0001C6.66675 11.7365 7.2637 12.3334 8.00008 12.3334Z" fill="black"/>
<path d="M12.6666 12.3334C13.403 12.3334 13.9999 11.7365 13.9999 11.0001C13.9999 10.2637 13.403 9.66675 12.6666 9.66675C11.9302 9.66675 11.3333 10.2637 11.3333 11.0001C11.3333 11.7365 11.9302 12.3334 12.6666 12.3334Z" fill="black"/>
<path d="M17.3333 12.3334C18.0697 12.3334 18.6667 11.7365 18.6667 11.0001C18.6667 10.2637 18.0697 9.66675 17.3333 9.66675C16.597 9.66675 16 10.2637 16 11.0001C16 11.7365 16.597 12.3334 17.3333 12.3334Z" fill="black"/>
</svg>
